<svg width="250" height="250" viewBox="0 0 250 250" fill="none" xmlns="http://www.w3.org/2000/svg">
<g clip-path="url(#clip0_80_30368)">
<path fill-rule="evenodd" clip-rule="evenodd" d="M11.7751 0H43.0178C49.4883 0 54.7338 5.24543 54.7338 11.716V42.9587C54.7338 49.4293 49.4883 54.6747 43.0178 54.6747H11.7751C5.30452 54.6747 0.059082 49.4293 0.059082 42.9587V11.716C0.059082 5.24543 5.30452 0 11.7751 0ZM15.5632 7.6934H39.1124C43.4261 7.6934 46.923 11.1904 46.923 15.5041V39.0532C46.923 43.367 43.4261 46.8639 39.1124 46.8639H15.5632C11.2495 46.8639 7.75253 43.367 7.75253 39.0532V15.5041C7.75253 11.1904 11.2495 7.6934 15.5632 7.6934Z" fill="black"/>
<path d="M26.7521 13.7078H26.4006C19.4124 13.7078 13.7473 19.3728 13.7473 26.361V26.3806C13.7473 33.3688 19.4124 39.0339 26.4006 39.0339H26.7521C33.7403 39.0339 39.4054 33.3688 39.4054 26.3806V26.361C39.4054 19.3728 33.7403 13.7078 26.7521 13.7078Z" fill="black"/>
<path fill-rule="evenodd" clip-rule="evenodd" d="M207.042 0H238.285C244.755 0 250.001 5.24543 250.001 11.716V42.9587C250.001 49.4293 244.755 54.6747 238.285 54.6747H207.042C200.571 54.6747 195.326 49.4293 195.326 42.9587V11.716C195.326 5.24543 200.571 0 207.042 0ZM211.006 7.6934H234.555C238.869 7.6934 242.366 11.1904 242.366 15.5041V39.0532C242.366 43.367 238.869 46.8639 234.555 46.8639H211.006C206.692 46.8639 203.195 43.367 203.195 39.0532V15.5041C203.195 11.1904 206.692 7.6934 211.006 7.6934Z" fill="black"/>
<path d="M222.956 13.7078H222.604C215.616 13.7078 209.951 19.3728 209.951 26.361V26.3806C209.951 33.3688 215.616 39.0339 222.604 39.0339H222.956C229.944 39.0339 235.609 33.3688 235.609 26.3806V26.361C235.609 19.3728 229.944 13.7078 222.956 13.7078Z" fill="black"/>
<path fill-rule="evenodd" clip-rule="evenodd" d="M11.7165 195.267H42.9592C49.4297 195.267 54.6752 200.512 54.6752 206.983V238.226C54.6752 244.696 49.4297 249.942 42.9592 249.942H11.7165C5.24592 249.942 0.000488281 244.696 0.000488281 238.226V206.983C0.000488281 200.512 5.24592 195.267 11.7165 195.267ZM15.6803 202.96H39.2295C43.5432 202.96 47.0402 206.457 47.0402 210.771V234.32C47.0402 238.634 43.5432 242.131 39.2295 242.131H15.6803C11.3666 242.131 7.86965 238.634 7.86965 234.32V210.771C7.86965 206.457 11.3666 202.96 15.6803 202.96Z" fill="black"/>
<path d="M27.6305 208.974H27.279C20.2908 208.974 14.6257 214.639 14.6257 221.628V221.647C14.6257 228.635 20.2908 234.3 27.279 234.3H27.6305C34.6187 234.3 40.2838 228.635 40.2838 221.647V221.628C40.2838 214.639 34.6187 208.974 27.6305 208.974Z" fill="black"/>
<path d="M7.86975 72.2486C7.86975 70.0917 6.12127 68.3433 3.96442 68.3433C1.80756 68.3433 0.059082 70.0917 0.059082 72.2486C0.059082 74.4055 1.80756 76.1539 3.96442 76.1539C6.12127 76.1539 7.86975 74.4055 7.86975 72.2486Z" fill="black"/>
<path d="M20.5424 60.5325H10.7791C9.17224 60.5325 7.86963 61.8351 7.86963 63.4419V65.4337C7.86963 67.0405 9.17224 68.3431 10.7791 68.3431H20.5424C22.1493 68.3431 23.4519 67.0405 23.4519 65.4337V63.4419C23.4519 61.8351 22.1493 60.5325 20.5424 60.5325Z" fill="black"/>
<path d="M44.0528 68.3433H24.5262C22.9193 68.3433 21.6167 69.6459 21.6167 71.2527V73.2445C21.6167 74.8513 22.9193 76.1539 24.5262 76.1539H44.0528C45.6597 76.1539 46.9623 74.8513 46.9623 73.2445V71.2527C46.9623 69.6459 45.6597 68.3433 44.0528 68.3433Z" fill="black"/>
<path d="M36.1444 60.5325H32.2C30.5931 60.5325 29.2905 61.8351 29.2905 63.4419V70.0224C29.2905 71.6293 30.5931 72.9319 32.2 72.9319H36.1444C37.7512 72.9319 39.0539 71.6293 39.0539 70.0224V63.4419C39.0539 61.8351 37.7512 60.5325 36.1444 60.5325Z" fill="black"/>
<path d="M57.6237 60.5325H47.8799C46.2731 60.5325 44.9705 61.8351 44.9705 63.4419V65.4337C44.9705 67.0405 46.2731 68.3431 47.8799 68.3431H57.6237C59.2306 68.3431 60.5332 67.0405 60.5332 65.4337V63.4419C60.5332 61.8351 59.2306 60.5325 57.6237 60.5325Z" fill="black"/>
<path d="M65.4735 44.8723H63.4817C61.8749 44.8723 60.5723 46.1749 60.5723 47.7818V57.6037C60.5723 59.2106 61.8749 60.5132 63.4817 60.5132H65.4735C67.0803 60.5132 68.3829 59.2106 68.3829 57.6037V47.7818C68.3829 46.1749 67.0803 44.8723 65.4735 44.8723Z" fill="black"/>
<path d="M81.0167 37.0615H77.2676C75.6608 37.0615 74.3582 38.3641 74.3582 39.971V64.6722C74.3582 66.2791 75.6608 67.5817 77.2676 67.5817H81.0167C82.6236 67.5817 83.9262 66.2791 83.9262 64.6722V39.971C83.9262 38.3641 82.6236 37.0615 81.0167 37.0615Z" fill="black"/>
<path d="M65.4537 0H63.4424C61.8356 0 60.533 1.30262 60.533 2.90947V35.9096C60.533 37.5164 61.8356 38.819 63.4424 38.819H65.4537C67.0605 38.819 68.3632 37.5164 68.3632 35.9096V2.90947C68.3632 1.30262 67.0605 0 65.4537 0Z" fill="black"/>
<path d="M80.7578 13.5396H68.7236C66.7932 13.5396 65.2283 14.8519 65.2283 16.4708V28.2743C65.2283 29.8931 66.7932 31.2055 68.7236 31.2055H80.7578C82.6882 31.2055 84.2531 29.8931 84.2531 28.2743V16.4708C84.2531 14.8519 82.6882 13.5396 80.7578 13.5396Z" fill="black"/>
<path d="M88.8855 0H66.6446C65.0377 0 63.7351 1.30262 63.7351 2.90947V4.78404C63.7351 6.39089 65.0377 7.69351 66.6446 7.69351H88.8855C90.4923 7.69351 91.7949 6.39089 91.7949 4.78404V2.90947C91.7949 1.30262 90.4923 0 88.8855 0Z" fill="black"/>
<path d="M89.3742 0H76.7795C75.4422 0 74.3582 1.08406 74.3582 2.42131V20.8935C74.3582 22.2308 75.4422 23.3148 76.7795 23.3148H89.3742C90.7114 23.3148 91.7955 22.2308 91.7955 20.8935V2.42131C91.7955 1.08406 90.7114 0 89.3742 0Z" fill="black"/>
<path d="M118.176 13.7078H80.6651C79.0582 13.7078 77.7556 15.0104 77.7556 16.6172V20.4054C77.7556 22.0123 79.0582 23.3149 80.6651 23.3149H118.176C119.783 23.3149 121.085 22.0123 121.085 20.4054V16.6172C121.085 15.0104 119.783 13.7078 118.176 13.7078Z" fill="black"/>
<path d="M104.546 7.69336H100.563C98.9559 7.69336 97.6533 8.99597 97.6533 10.6028V10.7786C97.6533 12.3854 98.9559 13.688 100.563 13.688H104.546C106.153 13.688 107.456 12.3854 107.456 10.7786V10.6028C107.456 8.99597 106.153 7.69336 104.546 7.69336Z" fill="black"/>
<path d="M118.176 0H116.223C114.616 0 113.314 1.30262 113.314 2.90947V4.86214C113.314 6.469 114.616 7.77162 116.223 7.77162H118.176C119.783 7.77162 121.085 6.469 121.085 4.86214V2.90947C121.085 1.30262 119.783 0 118.176 0Z" fill="black"/>
<path d="M133.797 7.77173H123.995C122.388 7.77173 121.085 9.07434 121.085 10.6812V12.6729C121.085 14.2798 122.388 15.5824 123.995 15.5824H133.797C135.404 15.5824 136.707 14.2798 136.707 12.6729V10.6812C136.707 9.07434 135.404 7.77173 133.797 7.77173Z" fill="black"/>
<path d="M149.535 0H145.259C143.652 0 142.35 1.30262 142.35 2.90947V12.6728C142.35 14.2797 143.652 15.5823 145.259 15.5823H149.535C151.142 15.5823 152.445 14.2797 152.445 12.6728V2.90947C152.445 1.30262 151.142 0 149.535 0Z" fill="black"/>
<path d="M165.079 7.79102H161.135C159.528 7.79102 158.225 9.09363 158.225 10.7005V12.6727C158.225 14.2795 159.528 15.5822 161.135 15.5822H165.079C166.686 15.5822 167.988 14.2795 167.988 12.6727V10.7005C167.988 9.09363 166.686 7.79102 165.079 7.79102Z" fill="black"/>
<path d="M157.229 13.688H153.422C151.815 13.688 150.512 14.9906 150.512 16.5975V20.4052C150.512 22.012 151.815 23.3146 153.422 23.3146H157.229C158.836 23.3146 160.139 22.012 160.139 20.4052V16.5975C160.139 14.9906 158.836 13.688 157.229 13.688Z" fill="black"/>
<path d="M149.536 21.5186H145.591C143.984 21.5186 142.682 22.8212 142.682 24.428V28.3724C142.682 29.9793 143.984 31.2819 145.591 31.2819H149.536C151.143 31.2819 152.445 29.9793 152.445 28.3724V24.428C152.445 22.8212 151.143 21.5186 149.536 21.5186Z" fill="black"/>
<path d="M133.856 21.5186H123.995C122.388 21.5186 121.085 22.8212 121.085 24.428V28.3724C121.085 29.9793 122.388 31.2819 123.995 31.2819H133.856C135.463 31.2819 136.765 29.9793 136.765 28.3724V24.428C136.765 22.8212 135.463 21.5186 133.856 21.5186Z" fill="black"/>
<path d="M178.728 0H168.926C167.319 0 166.016 1.30262 166.016 2.90947V5.03788C166.016 6.64474 167.319 7.94736 168.926 7.94736H178.728C180.335 7.94736 181.638 6.64474 181.638 5.03788V2.90947C181.638 1.30262 180.335 0 178.728 0Z" fill="black"/>
<path d="M178.728 7.69336H176.658C175.051 7.69336 173.749 8.99597 173.749 10.6028V12.6727C173.749 14.2795 175.051 15.5821 176.658 15.5821H178.728C180.335 15.5821 181.638 14.2795 181.638 12.6727V10.6028C181.638 8.99597 180.335 7.69336 178.728 7.69336Z" fill="black"/>
<path d="M112.357 23.3147H92.752C91.1451 23.3147 89.8425 24.6173 89.8425 26.2242V28.3721C89.8425 29.979 91.1451 31.2816 92.752 31.2816H112.357C113.964 31.2816 115.266 29.979 115.266 28.3721V26.2242C115.266 24.6173 113.964 23.3147 112.357 23.3147Z" fill="black"/>
<path d="M104.507 31.2817H92.752C91.1451 31.2817 89.8425 32.5844 89.8425 34.1912V36.3391C89.8425 37.946 91.1451 39.2486 92.752 39.2486H104.507C106.114 39.2486 107.417 37.946 107.417 36.3391V34.1912C107.417 32.5844 106.114 31.2817 104.507 31.2817Z" fill="black"/>
<path d="M104.507 39.2683H100.563C98.9559 39.2683 97.6533 40.5709 97.6533 42.1778V43.9742C97.6533 45.5811 98.9559 46.8837 100.563 46.8837H104.507C106.114 46.8837 107.417 45.5811 107.417 43.9742V42.1778C107.417 40.5709 106.114 39.2683 104.507 39.2683Z" fill="black"/>
<path d="M88.8856 37.0615H80.8602C79.2533 37.0615 77.9507 38.3641 77.9507 39.971V43.9544C77.9507 45.5613 79.2533 46.8639 80.8602 46.8639H88.8856C90.4925 46.8639 91.7951 45.5613 91.7951 43.9544V39.971C91.7951 38.3641 90.4925 37.0615 88.8856 37.0615Z" fill="black"/>
<path d="M247.091 60.4155H213.954C212.348 60.4155 211.045 61.7181 211.045 63.325V65.3753C211.045 66.9822 212.348 68.2848 213.954 68.2848H247.091C248.698 68.2848 250.001 66.9822 250.001 65.3753V63.325C250.001 61.7181 248.698 60.4155 247.091 60.4155Z" fill="black"/>
<path d="M247.091 60.4934H237.464C235.858 60.4934 234.555 61.796 234.555 63.4029V81.0159C234.555 82.6228 235.858 83.9254 237.464 83.9254H247.091C248.698 83.9254 250.001 82.6228 250.001 81.0159V63.4029C250.001 61.796 248.698 60.4934 247.091 60.4934Z" fill="black"/>
<path d="M242.209 74.2014H229.361C227.754 74.2014 226.451 75.504 226.451 77.1109V80.9967C226.451 82.6036 227.754 83.9062 229.361 83.9062H242.209C243.816 83.9062 245.119 82.6036 245.119 80.9967V77.1109C245.119 75.504 243.816 74.2014 242.209 74.2014Z" fill="black"/>
<path d="M210.088 68.2847H184.664C183.057 68.2847 181.755 69.5873 181.755 71.1941V80.9965C181.755 82.6034 183.057 83.906 184.664 83.906H210.088C211.695 83.906 212.998 82.6034 212.998 80.9965V71.1941C212.998 69.5873 211.695 68.2847 210.088 68.2847Z" fill="black"/>
<path d="M202.18 60.4155H198.235C196.629 60.4155 195.326 61.7181 195.326 63.325V74.1428C195.326 75.7496 196.629 77.0522 198.235 77.0522H202.18C203.787 77.0522 205.089 75.7496 205.089 74.1428V63.325C205.089 61.7181 203.787 60.4155 202.18 60.4155Z" fill="black"/>
<path d="M178.865 52.6438H176.756C175.149 52.6438 173.846 53.9464 173.846 55.5533V65.3752C173.846 66.982 175.149 68.2847 176.756 68.2847H178.865C180.472 68.2847 181.774 66.982 181.774 65.3752V55.5533C181.774 53.9464 180.472 52.6438 178.865 52.6438Z" fill="black"/>
<path d="M186.637 37.179H184.664C183.057 37.179 181.755 38.4816 181.755 40.0884V57.5062C181.755 59.1131 183.057 60.4157 184.664 60.4157H186.637C188.243 60.4157 189.546 59.1131 189.546 57.5062V40.0884C189.546 38.4816 188.243 37.179 186.637 37.179Z" fill="black"/>
<path d="M178.728 21.5186H168.867C167.26 21.5186 165.958 22.8212 165.958 24.428V28.3724C165.958 29.9793 167.26 31.2819 168.867 31.2819H178.728C180.335 31.2819 181.637 29.9793 181.637 28.3724V24.428C181.637 22.8212 180.335 21.5186 178.728 21.5186Z" fill="black"/>
<path d="M178.728 31.2817H176.697C175.09 31.2817 173.788 32.5844 173.788 34.1912V43.9545C173.788 45.5614 175.09 46.864 176.697 46.864H178.728C180.335 46.864 181.638 45.5614 181.638 43.9545V34.1912C181.638 32.5844 180.335 31.2817 178.728 31.2817Z" fill="black"/>
<path d="M172.616 44.833H168.867C167.26 44.833 165.958 46.1356 165.958 47.7425V51.4916C165.958 53.0985 167.26 54.4011 168.867 54.4011H172.616C174.223 54.4011 175.526 53.0985 175.526 51.4916V47.7425C175.526 46.1356 174.223 44.833 172.616 44.833Z" fill="black"/>
<path d="M157.229 44.833H153.422C151.815 44.833 150.512 46.1356 150.512 47.7425V57.623C150.512 59.2298 151.815 60.5325 153.422 60.5325H157.229C158.836 60.5325 160.139 59.2298 160.139 57.623V47.7425C160.139 46.1356 158.836 44.833 157.229 44.833Z" fill="black"/>
<path d="M165.079 52.6831H161.291C159.684 52.6831 158.381 53.9857 158.381 55.5926V65.3754C158.381 66.9823 159.684 68.2849 161.291 68.2849H165.079C166.686 68.2849 167.988 66.9823 167.988 65.3754V55.5926C167.988 53.9857 166.686 52.6831 165.079 52.6831Z" fill="black"/>
<path d="M172.909 68.2847H168.867C167.26 68.2847 165.958 69.5873 165.958 71.1941V80.9965C165.958 82.6034 167.26 83.906 168.867 83.906H172.909C174.516 83.906 175.818 82.6034 175.818 80.9965V71.1941C175.818 69.5873 174.516 68.2847 172.909 68.2847Z" fill="black"/>
<path d="M168.906 68.2847H153.422C151.815 68.2847 150.512 69.5873 150.512 71.1941V73.1859C150.512 74.7927 151.815 76.0953 153.422 76.0953H168.906C170.513 76.0953 171.816 74.7927 171.816 73.1859V71.1941C171.816 69.5873 170.513 68.2847 168.906 68.2847Z" fill="black"/>
<path d="M126.026 60.4155H123.995C122.388 60.4155 121.085 61.7181 121.085 63.325V73.2445C121.085 74.8514 122.388 76.154 123.995 76.154H126.026C127.633 76.154 128.935 74.8514 128.935 73.2445V63.325C128.935 61.7181 127.633 60.4155 126.026 60.4155Z" fill="black"/>
<path d="M133.856 52.6831H131.825C130.218 52.6831 128.916 53.9857 128.916 55.5926V63.5399C128.916 65.1468 130.218 66.4494 131.825 66.4494H133.856C135.463 66.4494 136.765 65.1468 136.765 63.5399V55.5926C136.765 53.9857 135.463 52.6831 133.856 52.6831Z" fill="black"/>
<path d="M126.026 44.833H123.995C122.388 44.833 121.085 46.1356 121.085 47.7425V51.765C121.085 53.3718 122.388 54.6745 123.995 54.6745H126.026C127.633 54.6745 128.935 53.3718 128.935 51.765V47.7425C128.935 46.1356 127.633 44.833 126.026 44.833Z" fill="black"/>
<path d="M118.176 37.0422H116.145C114.538 37.0422 113.236 38.3449 113.236 39.9517V43.9547C113.236 45.5615 114.538 46.8642 116.145 46.8642H118.176C119.783 46.8642 121.085 45.5615 121.085 43.9547V39.9517C121.085 38.3449 119.783 37.0422 118.176 37.0422Z" fill="black"/>
<path d="M136.004 41.8846C136.004 39.7169 134.246 37.9597 132.079 37.9597C129.911 37.9597 128.154 39.7169 128.154 41.8846V42.0408C128.154 44.2084 129.911 45.9657 132.079 45.9657C134.246 45.9657 136.004 44.2084 136.004 42.0408V41.8846Z" fill="black"/>
<path d="M143.072 49.2266C143.072 47.059 141.315 45.3018 139.148 45.3018C136.98 45.3018 135.223 47.059 135.223 49.2266V49.3828C135.223 51.5505 136.98 53.3077 139.148 53.3077C141.315 53.3077 143.072 51.5505 143.072 49.3828V49.2266Z" fill="black"/>
<path d="M128.935 34.9139C128.935 32.7462 127.178 30.989 125.01 30.989C122.843 30.989 121.085 32.7462 121.085 34.9139V35.1091C121.085 37.2768 122.843 39.034 125.01 39.034C127.178 39.034 128.935 37.2768 128.935 35.1091V34.9139Z" fill="black"/>
<path d="M112.474 44.833H108.452C106.845 44.833 105.542 46.1356 105.542 47.7425V57.5058C105.542 59.1127 106.845 60.4153 108.452 60.4153H112.474C114.081 60.4153 115.384 59.1127 115.384 57.5058V47.7425C115.384 46.1356 114.081 44.833 112.474 44.833Z" fill="black"/>
<path d="M96.8917 44.8723H92.752C91.1451 44.8723 89.8425 46.1749 89.8425 47.7818V65.4339C89.8425 67.0408 91.1451 68.3434 92.752 68.3434H96.8917C98.4985 68.3434 99.8011 67.0408 99.8011 65.4339V47.7818C99.8011 46.1749 98.4985 44.8723 96.8917 44.8723Z" fill="black"/>
<path d="M89.4132 60.5325H77.2676C75.6608 60.5325 74.3582 61.8351 74.3582 63.4419V65.3751C74.3582 66.9819 75.6608 68.2846 77.2676 68.2846H89.4132C91.0201 68.2846 92.3227 66.9819 92.3227 65.3751V63.4419C92.3227 61.8351 91.0201 60.5325 89.4132 60.5325Z" fill="black"/>
<path d="M37.3354 74.3772V99.7423H60.5917V74.3772H37.3354ZM52.742 89.8814H46.9621V83.7891H52.742V89.8814Z" fill="black"/>
<path d="M4.96028 97.4963H2.96856C1.3617 97.4963 0.059082 98.7989 0.059082 100.406V133.64C0.059082 135.247 1.3617 136.55 2.96856 136.55H4.96028C6.56714 136.55 7.86975 135.247 7.86975 133.64V100.406C7.86975 98.7989 6.56714 97.4963 4.96028 97.4963Z" fill="black"/>
<path d="M12.7512 97.4963H4.15947C2.55262 97.4963 1.25 98.7989 1.25 100.406V104.467C1.25 106.074 2.55262 107.377 4.15947 107.377H12.7512C14.3581 107.377 15.6607 106.074 15.6607 104.467V100.406C15.6607 98.7989 14.3581 97.4963 12.7512 97.4963Z" fill="black"/>
<path d="M20.5233 113.118H5.07769C3.47083 113.118 2.16821 114.421 2.16821 116.027V118.136C2.16821 119.743 3.47083 121.046 5.07769 121.046H20.5233C22.1301 121.046 23.4328 119.743 23.4328 118.136V116.027C23.4328 114.421 22.1301 113.118 20.5233 113.118Z" fill="black"/>
<path d="M28.3533 105.307H16.813C15.2062 105.307 13.9036 106.61 13.9036 108.217V111.946C13.9036 113.553 15.2062 114.856 16.813 114.856H28.3533C29.9602 114.856 31.2628 113.553 31.2628 111.946V108.217C31.2628 106.61 29.9602 105.307 28.3533 105.307Z" fill="black"/>
<path d="M36.1637 97.4963H32.1021C30.4952 97.4963 29.1926 98.7989 29.1926 100.406V104.467C29.1926 106.074 30.4952 107.377 32.1021 107.377H36.1637C37.7705 107.377 39.0731 106.074 39.0731 104.467V100.406C39.0731 98.7989 37.7705 97.4963 36.1637 97.4963Z" fill="black"/>
<path d="M23.4521 86.6983C23.4521 84.0346 21.2927 81.8752 18.629 81.8752C15.9653 81.8752 13.8059 84.0346 13.8059 86.6983C13.8059 89.3621 15.9653 91.5214 18.629 91.5214C21.2927 91.5214 23.4521 89.3621 23.4521 86.6983Z" fill="black"/>
<path d="M80.9973 68.1089H55.6517C54.0448 68.1089 52.7422 69.4115 52.7422 71.0184V73.2444C52.7422 74.8513 54.0448 76.1539 55.6517 76.1539H80.9973C82.6041 76.1539 83.9068 74.8513 83.9068 73.2444V71.0184C83.9068 69.4115 82.6041 68.1089 80.9973 68.1089Z" fill="black"/>
<path d="M81.173 81.8752H77.2676C75.6608 81.8752 74.3582 83.1779 74.3582 84.7847V96.8132C74.3582 98.42 75.6608 99.7226 77.2676 99.7226H81.173C82.7798 99.7226 84.0824 98.42 84.0824 96.8132V84.7847C84.0824 83.1779 82.7798 81.8752 81.173 81.8752Z" fill="black"/>
<path d="M74.2409 81.8752H63.4817C61.8749 81.8752 60.5723 83.1779 60.5723 84.7847V88.6119C60.5723 90.2188 61.8749 91.5214 63.4817 91.5214H74.2409C75.8478 91.5214 77.1504 90.2188 77.1504 88.6119V84.7847C77.1504 83.1779 75.8478 81.8752 74.2409 81.8752Z" fill="black"/>
<path d="M73.1668 76.0955H71.2728C69.6659 76.0955 68.3633 77.3981 68.3633 79.0049V81.6606C68.3633 83.2674 69.6659 84.57 71.2728 84.57H73.1668C74.7737 84.57 76.0763 83.2674 76.0763 81.6606V79.0049C76.0763 77.3981 74.7737 76.0955 73.1668 76.0955Z" fill="black"/>
<path fill-rule="evenodd" clip-rule="evenodd" d="M184.527 181.676H217.645C219.251 181.676 220.554 182.979 220.554 184.586V217.703C220.554 219.31 219.251 220.612 217.645 220.612H184.527C182.921 220.612 181.618 219.31 181.618 217.703V184.586C181.618 182.979 182.921 181.676 184.527 181.676ZM189.331 189.155H213.095V212.919H189.331V189.155Z" fill="black"/>
<path d="M225.475 189.37H217.801C216.194 189.37 214.892 190.672 214.892 192.279V194.271C214.892 195.878 216.194 197.18 217.801 197.18H225.475C227.082 197.18 228.385 195.878 228.385 194.271V192.279C228.385 190.672 227.082 189.37 225.475 189.37Z" fill="black"/>
<path d="M247.091 242.092H237.25C235.643 242.092 234.34 243.394 234.34 245.001V247.032C234.34 248.639 235.643 249.942 237.25 249.942H247.091C248.698 249.942 250 248.639 250 247.032V245.001C250 243.394 248.698 242.092 247.091 242.092Z" fill="black"/>
<path d="M240.218 234.398H236.293C235.214 234.398 234.34 235.273 234.34 236.351V247.989C234.34 249.067 235.214 249.942 236.293 249.942H240.218C241.296 249.942 242.17 249.067 242.17 247.989V236.351C242.17 235.273 241.296 234.398 240.218 234.398Z" fill="black"/>
<path d="M247.091 218.445H245.08C243.473 218.445 242.17 219.748 242.17 221.355V233.227C242.17 234.834 243.473 236.136 245.08 236.136H247.091C248.698 236.136 250.001 234.834 250.001 233.227V221.355C250.001 219.748 248.698 218.445 247.091 218.445Z" fill="black"/>
<path d="M239.26 218.445H229.224C227.617 218.445 226.314 219.748 226.314 221.355V225.182C226.314 226.789 227.617 228.091 229.224 228.091H239.26C240.867 228.091 242.17 226.789 242.17 225.182V221.355C242.17 219.748 240.867 218.445 239.26 218.445Z" fill="black"/>
<path d="M217.664 216.883H213.72C212.113 216.883 210.811 218.185 210.811 219.792V247.032C210.811 248.639 212.113 249.941 213.72 249.941H217.664C219.271 249.941 220.574 248.639 220.574 247.032V219.792C220.574 218.185 219.271 216.883 217.664 216.883Z" fill="black"/>
<path d="M225.904 226.256H219.421C217.815 226.256 216.512 227.558 216.512 229.165V233.227C216.512 234.834 217.815 236.136 219.421 236.136H225.904C227.511 236.136 228.814 234.834 228.814 233.227V229.165C228.814 227.558 227.511 226.256 225.904 226.256Z" fill="black"/>
<path d="M225.475 210.849H217.801C216.194 210.849 214.892 212.151 214.892 213.758V217.703C214.892 219.31 216.194 220.612 217.801 220.612H225.475C227.082 220.612 228.385 219.31 228.385 217.703V213.758C228.385 212.151 227.082 210.849 225.475 210.849Z" fill="black"/>
<path d="M239.261 189.37H237.25C235.643 189.37 234.34 190.672 234.34 192.279V220.358C234.34 221.965 235.643 223.268 237.25 223.268H239.261C240.868 223.268 242.17 221.965 242.17 220.358V192.279C242.17 190.672 240.868 189.37 239.261 189.37Z" fill="black"/>
<path d="M238.772 195.13H229.224C227.617 195.13 226.314 196.432 226.314 198.039V202.101C226.314 203.708 227.617 205.01 229.224 205.01H238.772C240.379 205.01 241.682 203.708 241.682 202.101V198.039C241.682 196.432 240.379 195.13 238.772 195.13Z" fill="black"/>
<path d="M247.091 189.37H238.519C236.912 189.37 235.609 190.672 235.609 192.279V210.009C235.609 211.616 236.912 212.919 238.519 212.919H247.091C248.698 212.919 250 211.616 250 210.009V192.279C250 190.672 248.698 189.37 247.091 189.37Z" fill="black"/>
<path d="M247.091 158.186H245.08C243.473 158.186 242.17 159.488 242.17 161.095V178.767C242.17 180.374 243.473 181.676 245.08 181.676H247.091C248.698 181.676 250.001 180.374 250.001 178.767V161.095C250.001 159.488 248.698 158.186 247.091 158.186Z" fill="black"/>
<path d="M239.261 128.896H237.25C235.643 128.896 234.34 130.198 234.34 131.805V172.518C234.34 174.125 235.643 175.428 237.25 175.428H239.261C240.868 175.428 242.17 174.125 242.17 172.518V131.805C242.17 130.198 240.868 128.896 239.261 128.896Z" fill="black"/>
<path d="M247.091 128.896H237.289C235.682 128.896 234.379 130.198 234.379 131.805V141.607C234.379 143.214 235.682 144.517 237.289 144.517H247.091C248.698 144.517 250 143.214 250 141.607V131.805C250 130.198 248.698 128.896 247.091 128.896Z" fill="black"/>
<path d="M238.773 134.832H229.517C227.91 134.832 226.607 136.134 226.607 137.741V141.608C226.607 143.214 227.91 144.517 229.517 144.517H238.773C240.379 144.517 241.682 143.214 241.682 141.608V137.741C241.682 136.134 240.379 134.832 238.773 134.832Z" fill="black"/>
<path d="M236.215 158.186H229.517C227.91 158.186 226.607 159.488 226.607 161.095V164.961C226.607 166.568 227.91 167.871 229.517 167.871H236.215C237.821 167.871 239.124 166.568 239.124 164.961V161.095C239.124 159.488 237.821 158.186 236.215 158.186Z" fill="black"/>
<path d="M225.807 150.375H221.784C220.178 150.375 218.875 151.677 218.875 153.284V178.767C218.875 180.373 220.178 181.676 221.784 181.676H225.807C227.414 181.676 228.716 180.373 228.716 178.767V153.284C228.716 151.677 227.414 150.375 225.807 150.375Z" fill="black"/>
<path d="M217.665 142.643H206.163C204.557 142.643 203.254 143.945 203.254 145.552V149.243C203.254 150.849 204.557 152.152 206.163 152.152H217.665C219.271 152.152 220.574 150.849 220.574 149.243V145.552C220.574 143.945 219.271 142.643 217.665 142.643Z" fill="black"/>
<path d="M210.01 166.016H184.527C182.921 166.016 181.618 167.318 181.618 168.925V172.889C181.618 174.496 182.921 175.799 184.527 175.799H210.01C211.617 175.799 212.919 174.496 212.919 172.889V168.925C212.919 167.318 211.617 166.016 210.01 166.016Z" fill="black"/>
<path d="M202.297 150.375H198.43C196.823 150.375 195.521 151.677 195.521 153.284V167.558C195.521 169.165 196.823 170.468 198.43 170.468H202.297C203.903 170.468 205.206 169.165 205.206 167.558V153.284C205.206 151.677 203.903 150.375 202.297 150.375Z" fill="black"/>
<path d="M186.792 142.643H184.527C182.921 142.643 181.618 143.945 181.618 145.552V169.14C181.618 170.747 182.921 172.05 184.527 172.05H186.792C188.399 172.05 189.702 170.747 189.702 169.14V145.552C189.702 143.945 188.399 142.643 186.792 142.643Z" fill="black"/>
<path d="M197.864 150.375H189.409C187.802 150.375 186.5 151.677 186.5 153.284V157.151C186.5 158.757 187.802 160.06 189.409 160.06H197.864C199.471 160.06 200.774 158.757 200.774 157.151V153.284C200.774 151.677 199.471 150.375 197.864 150.375Z" fill="black"/>
<path d="M164.669 234.281H145.435C143.828 234.281 142.526 235.584 142.526 237.19V247.032C142.526 248.639 143.828 249.941 145.435 249.941H164.669C166.276 249.941 167.578 248.639 167.578 247.032V237.19C167.578 235.584 166.276 234.281 164.669 234.281Z" fill="black"/>
<path d="M186.792 218.445H176.19C174.583 218.445 173.28 219.748 173.28 221.355V247.032C173.28 248.639 174.583 249.942 176.19 249.942H186.792C188.399 249.942 189.702 248.639 189.702 247.032V221.355C189.702 219.748 188.399 218.445 186.792 218.445Z" fill="black"/>
<path d="M194.369 226.256H187.73C186.123 226.256 184.82 227.558 184.82 229.165V233.227C184.82 234.834 186.123 236.136 187.73 236.136H194.369C195.975 236.136 197.278 234.834 197.278 233.227V229.165C197.278 227.558 195.975 226.256 194.369 226.256Z" fill="black"/>
<path d="M202.297 240.256H198.43C196.823 240.256 195.521 241.559 195.521 243.166V247.032C195.521 248.639 196.823 249.942 198.43 249.942H202.297C203.903 249.942 205.206 248.639 205.206 247.032V243.166C205.206 241.559 203.903 240.256 202.297 240.256Z" fill="black"/>
<path d="M132.723 233.969H132.704C130.461 233.969 128.642 235.787 128.642 238.03V238.05C128.642 240.293 130.461 242.111 132.704 242.111H132.723C134.966 242.111 136.785 240.293 136.785 238.05V238.03C136.785 235.787 134.966 233.969 132.723 233.969Z" fill="black"/>
<path d="M164.669 203.917H153.187C151.58 203.917 150.278 205.22 150.278 206.826V225.201C150.278 226.808 151.58 228.111 153.187 228.111H164.669C166.276 228.111 167.578 226.808 167.578 225.201V206.826C167.578 205.22 166.276 203.917 164.669 203.917Z" fill="black"/>
<path d="M172.597 202.96H145.435C143.828 202.96 142.526 204.263 142.526 205.87V209.99C142.526 211.597 143.828 212.899 145.435 212.899H172.597C174.204 212.899 175.506 211.597 175.506 209.99V205.87C175.506 204.263 174.204 202.96 172.597 202.96Z" fill="black"/>
<path d="M112.064 234.398H92.9864C91.3795 234.398 90.0769 235.701 90.0769 237.308V239.182C90.0769 240.789 91.3795 242.092 92.9864 242.092H112.064C113.671 242.092 114.973 240.789 114.973 239.182V237.308C114.973 235.701 113.671 234.398 112.064 234.398Z" fill="black"/>
<path d="M112.064 236.781H108.119C106.513 236.781 105.21 238.083 105.21 239.69V247.032C105.21 248.639 106.513 249.941 108.119 249.941H112.064C113.671 249.941 114.973 248.639 114.973 247.032V239.69C114.973 238.083 113.671 236.781 112.064 236.781Z" fill="black"/>
<path d="M89.1201 242.092H84.6875C83.0807 242.092 81.7781 243.394 81.7781 245.001V247.032C81.7781 248.639 83.0807 249.942 84.6875 249.942H89.1201C90.727 249.942 92.0296 248.639 92.0296 247.032V245.001C92.0296 243.394 90.727 242.092 89.1201 242.092Z" fill="black"/>
<path d="M80.8214 234.398H63.5403C61.9335 234.398 60.6309 235.701 60.6309 237.308V239.182C60.6309 240.789 61.9335 242.092 63.5403 242.092H80.8214C82.4283 242.092 83.7309 240.789 83.7309 239.182V237.308C83.7309 235.701 82.4283 234.398 80.8214 234.398Z" fill="black"/>
<path d="M65.864 226.256H63.5403C61.9335 226.256 60.6309 227.558 60.6309 229.165V237.796C60.6309 239.403 61.9335 240.706 63.5403 240.706H65.864C67.4709 240.706 68.7735 239.403 68.7735 237.796V229.165C68.7735 227.558 67.4709 226.256 65.864 226.256Z" fill="black"/>
<path d="M73.4988 203.058H71.2923C69.6854 203.058 68.3828 204.361 68.3828 205.968V225.494C68.3828 227.101 69.6854 228.404 71.2923 228.404H73.4988C75.1057 228.404 76.4083 227.101 76.4083 225.494V205.968C76.4083 204.361 75.1057 203.058 73.4988 203.058Z" fill="black"/>
<path d="M70.0232 210.849H63.5403C61.9335 210.849 60.6309 212.151 60.6309 213.758V217.703C60.6309 219.31 61.9335 220.612 63.5403 220.612H70.0232C71.6301 220.612 72.9327 219.31 72.9327 217.703V213.758C72.9327 212.151 71.6301 210.849 70.0232 210.849Z" fill="black"/>
<path d="M89.1203 195.267H77.2872C75.6803 195.267 74.3777 196.569 74.3777 198.176V210.009C74.3777 211.616 75.6803 212.919 77.2872 212.919H89.1203C90.7272 212.919 92.0298 211.616 92.0298 210.009V198.176C92.0298 196.569 90.7272 195.267 89.1203 195.267Z" fill="black"/>
<path d="M125.733 218.445H85.3318C83.725 218.445 82.4224 219.748 82.4224 221.355V225.475C82.4224 227.082 83.725 228.384 85.3318 228.384H125.733C127.339 228.384 128.642 227.082 128.642 225.475V221.355C128.642 219.748 127.339 218.445 125.733 218.445Z" fill="black"/>
<path d="M118.254 203.058H108.119C106.513 203.058 105.21 204.361 105.21 205.968V215.555C105.21 217.162 106.513 218.465 108.119 218.465H118.254C119.861 218.465 121.163 217.162 121.163 215.555V205.968C121.163 204.361 119.861 203.058 118.254 203.058Z" fill="black"/>
<path d="M125.733 195.774H116.086C114.48 195.774 113.177 197.077 113.177 198.684V210.009C113.177 211.616 114.48 212.919 116.086 212.919H125.733C127.34 212.919 128.642 211.616 128.642 210.009V198.684C128.642 197.077 127.34 195.774 125.733 195.774Z" fill="black"/>
<path d="M133.856 189.37H123.819C122.212 189.37 120.91 190.672 120.91 192.279V201.828C120.91 203.435 122.212 204.737 123.819 204.737H133.856C135.463 204.737 136.765 203.435 136.765 201.828V192.279C136.765 190.672 135.463 189.37 133.856 189.37Z" fill="black"/>
<path d="M141.901 189.37H131.552C129.945 189.37 128.642 190.672 128.642 192.279V194.154C128.642 195.761 129.945 197.063 131.552 197.063H141.901C143.508 197.063 144.81 195.761 144.81 194.154V192.279C144.81 190.672 143.508 189.37 141.901 189.37Z" fill="black"/>
<path d="M179.334 189.37H168.984C167.378 189.37 166.075 190.672 166.075 192.279V194.154C166.075 195.761 167.378 197.063 168.984 197.063H179.334C180.94 197.063 182.243 195.761 182.243 194.154V192.279C182.243 190.672 180.94 189.37 179.334 189.37Z" fill="black"/>
<path d="M178.728 173.611H177.068C175.462 173.611 174.159 174.914 174.159 176.521V202.081C174.159 203.688 175.462 204.991 177.068 204.991H178.728C180.335 204.991 181.638 203.688 181.638 202.081V176.521C181.638 174.914 180.335 173.611 178.728 173.611Z" fill="black"/>
<path d="M164.942 173.611H145.435C143.828 173.611 142.526 174.914 142.526 176.521V186.46C142.526 188.067 143.828 189.369 145.435 189.369H164.942C166.549 189.369 167.852 188.067 167.852 186.46V176.521C167.852 174.914 166.549 173.611 164.942 173.611Z" fill="black"/>
<path d="M172.597 166.016H168.984C167.378 166.016 166.075 167.318 166.075 168.925V178.572C166.075 180.178 167.378 181.481 168.984 181.481H172.597C174.204 181.481 175.506 180.178 175.506 178.572V168.925C175.506 167.318 174.204 166.016 172.597 166.016Z" fill="black"/>
<path d="M12.7514 150.375H2.96856C1.3617 150.375 0.059082 151.677 0.059082 153.284V157.151C0.059082 158.757 1.3617 160.06 2.96856 160.06H12.7514C14.3583 160.06 15.6609 158.757 15.6609 157.151V153.284C15.6609 151.677 14.3583 150.375 12.7514 150.375Z" fill="black"/>
<path d="M12.7318 142.408H10.7596C9.15271 142.408 7.8501 143.711 7.8501 145.317V153.87C7.8501 155.477 9.15271 156.78 10.7596 156.78H12.7318C14.3386 156.78 15.6412 155.477 15.6412 153.87V145.317C15.6412 143.711 14.3386 142.408 12.7318 142.408Z" fill="black"/>
<path d="M4.96026 165.84H2.90996C1.3031 165.84 0.000488281 167.142 0.000488281 168.749V172.694C0.000488281 174.301 1.3031 175.603 2.90996 175.603H4.96026C6.56712 175.603 7.86974 174.301 7.86974 172.694V168.749C7.86974 167.142 6.56712 165.84 4.96026 165.84Z" fill="black"/>
<path d="M7.86975 185.464C7.86975 183.307 6.12127 181.559 3.96442 181.559C1.80756 181.559 0.059082 183.307 0.059082 185.464C0.059082 187.621 1.80756 189.37 3.96442 189.37C6.12127 189.37 7.86975 187.621 7.86975 185.464Z" fill="black"/>
<path d="M28.3728 181.559H16.7349C15.1281 181.559 13.8254 182.861 13.8254 184.468V186.46C13.8254 188.067 15.1281 189.37 16.7349 189.37H28.3728C29.9797 189.37 31.2823 188.067 31.2823 186.46V184.468C31.2823 182.861 29.9797 181.559 28.3728 181.559Z" fill="black"/>
<path d="M20.5424 173.748H10.7791C9.17224 173.748 7.86963 175.051 7.86963 176.658V178.649C7.86963 180.256 9.17224 181.559 10.7791 181.559H20.5424C22.1493 181.559 23.4519 180.256 23.4519 178.649V176.658C23.4519 175.051 22.1493 173.748 20.5424 173.748Z" fill="black"/>
<path d="M20.5426 165.84H16.7349C15.1281 165.84 13.8254 167.142 13.8254 168.749V170.819C13.8254 172.426 15.1281 173.729 16.7349 173.729H20.5426C22.1495 173.729 23.4521 172.426 23.4521 170.819V168.749C23.4521 167.142 22.1495 165.84 20.5426 165.84Z" fill="black"/>
<path d="M36.5349 142.408H32.2586C30.6517 142.408 29.3491 143.711 29.3491 145.317V178.649C29.3491 180.256 30.6517 181.559 32.2586 181.559H36.5349C38.1418 181.559 39.4444 180.256 39.4444 178.649V145.317C39.4444 143.711 38.1418 142.408 36.5349 142.408Z" fill="black"/>
<path d="M49.8324 150.375H24.2134C22.6066 150.375 21.304 151.677 21.304 153.284V157.151C21.304 158.757 22.6066 160.06 24.2134 160.06H49.8324C51.4393 160.06 52.7419 158.757 52.7419 157.151V153.284C52.7419 151.677 51.4393 150.375 49.8324 150.375Z" fill="black"/>
<path d="M57.6821 181.559H47.8016C46.1947 181.559 44.8921 182.861 44.8921 184.468V186.46C44.8921 188.067 46.1947 189.37 47.8016 189.37H57.6821C59.2889 189.37 60.5915 188.067 60.5915 186.46V184.468C60.5915 182.861 59.2889 181.559 57.6821 181.559Z" fill="black"/>
<path d="M65.4735 189.37H63.5403C61.9335 189.37 60.6309 190.672 60.6309 192.279V201.828C60.6309 203.435 61.9335 204.737 63.5403 204.737H65.4735C67.0803 204.737 68.383 203.435 68.383 201.828V192.279C68.383 190.672 67.0803 189.37 65.4735 189.37Z" fill="black"/>
<path d="M76.1935 185.464C76.1935 183.307 74.445 181.559 72.2881 181.559C70.1313 181.559 68.3828 183.307 68.3828 185.464C68.3828 187.621 70.1313 189.37 72.2881 189.37C74.445 189.37 76.1935 187.621 76.1935 185.464Z" fill="black"/>
<path d="M88.7687 173.768H84.9024C83.2955 173.768 81.9929 175.071 81.9929 176.678V186.48C81.9929 188.087 83.2955 189.389 84.9024 189.389H88.7687C90.3755 189.389 91.6781 188.087 91.6781 186.48V176.678C91.6781 175.071 90.3755 173.768 88.7687 173.768Z" fill="black"/>
<path d="M104.39 181.5H100.602C98.9952 181.5 97.6926 182.803 97.6926 184.41V210.009C97.6926 211.616 98.9952 212.919 100.602 212.919H104.39C105.997 212.919 107.3 211.616 107.3 210.009V184.41C107.3 182.803 105.997 181.5 104.39 181.5Z" fill="black"/>
<path d="M100.114 189.37H92.6351C91.0282 189.37 89.7256 190.672 89.7256 192.279V194.427C89.7256 196.034 91.0282 197.337 92.6351 197.337H100.114C101.721 197.337 103.023 196.034 103.023 194.427V192.279C103.023 190.672 101.721 189.37 100.114 189.37Z" fill="black"/>
<path d="M36.1444 128.837H16.7349C15.1281 128.837 13.8254 130.14 13.8254 131.747V133.641C13.8254 135.248 15.1281 136.55 16.7349 136.55H36.1444C37.7513 136.55 39.0539 135.248 39.0539 133.641V131.747C39.0539 130.14 37.7513 128.837 36.1444 128.837Z" fill="black"/>
<path d="M36.1444 121.026H32.2586C30.6517 121.026 29.3491 122.329 29.3491 123.936V131.922C29.3491 133.529 30.6517 134.832 32.2586 134.832H36.1444C37.7513 134.832 39.0539 133.529 39.0539 131.922V123.936C39.0539 122.329 37.7513 121.026 36.1444 121.026Z" fill="black"/>
<path d="M53.601 124.922C53.601 122.77 51.8569 121.026 49.7054 121.026C47.5539 121.026 45.8098 122.77 45.8098 124.922C45.8098 127.073 47.5539 128.818 49.7054 128.818C51.8569 128.818 53.601 127.073 53.601 124.922Z" fill="black"/>
<path d="M44.0526 105.307H40.2449C38.6381 105.307 37.3354 106.61 37.3354 108.217V118.136C37.3354 119.743 38.6381 121.046 40.2449 121.046H44.0526C45.6595 121.046 46.9621 119.743 46.9621 118.136V108.217C46.9621 106.61 45.6595 105.307 44.0526 105.307Z" fill="black"/>
<path d="M51.6096 105.307H43.9356C42.3287 105.307 41.0261 106.61 41.0261 108.217V111.946C41.0261 113.553 42.3287 114.856 43.9356 114.856H51.6096C53.2164 114.856 54.5191 113.553 54.5191 111.946V108.217C54.5191 106.61 53.2164 105.307 51.6096 105.307Z" fill="black"/>
<path d="M65.4735 97.4963H63.5403C61.9335 97.4963 60.6309 98.7989 60.6309 100.406V125.927C60.6309 127.534 61.9335 128.837 63.5403 128.837H65.4735C67.0803 128.837 68.383 127.534 68.383 125.927V100.406C68.383 98.7989 67.0803 97.4963 65.4735 97.4963Z" fill="black"/>
<path d="M81.0167 105.307H77.2676C75.6608 105.307 74.3582 106.61 74.3582 108.217V125.927C74.3582 127.534 75.6608 128.837 77.2676 128.837H81.0167C82.6236 128.837 83.9262 127.534 83.9262 125.927V108.217C83.9262 106.61 82.6236 105.307 81.0167 105.307Z" fill="black"/>
<path d="M73.3035 121.026H71.2532C69.6464 121.026 68.3438 122.329 68.3438 123.936V133.621C68.3438 135.228 69.6464 136.531 71.2532 136.531H73.3035C74.9104 136.531 76.213 135.228 76.213 133.621V123.936C76.213 122.329 74.9104 121.026 73.3035 121.026Z" fill="black"/>
<path d="M65.4344 134.578H63.5403C61.9335 134.578 60.6309 135.88 60.6309 137.487V149.125C60.6309 150.732 61.9335 152.034 63.5403 152.034H65.4344C67.0413 152.034 68.3439 150.732 68.3439 149.125V137.487C68.3439 135.88 67.0413 134.578 65.4344 134.578Z" fill="black"/>
<path d="M51.6094 134.578H40.2449C38.6381 134.578 37.3354 135.88 37.3354 137.487V141.432C37.3354 143.038 38.6381 144.341 40.2449 144.341H51.6094C53.2163 144.341 54.5189 143.038 54.5189 141.432V137.487C54.5189 135.88 53.2163 134.578 51.6094 134.578Z" fill="black"/>
<path d="M58.7759 142.643H55.6517C54.0448 142.643 52.7422 143.945 52.7422 145.552V157.151C52.7422 158.758 54.0448 160.06 55.6517 160.06H58.7759C60.3828 160.06 61.6854 158.758 61.6854 157.151V145.552C61.6854 143.945 60.3828 142.643 58.7759 142.643Z" fill="black"/>
<path d="M65.4733 165.84H55.5733C53.9664 165.84 52.6638 167.142 52.6638 168.749V178.649C52.6638 180.256 53.9664 181.559 55.5733 181.559H65.4733C67.0802 181.559 68.3828 180.256 68.3828 178.649V168.749C68.3828 167.142 67.0802 165.84 65.4733 165.84Z" fill="black"/>
<path d="M49.7544 165.84H42.3538C40.747 165.84 39.4443 167.142 39.4443 168.749V172.694C39.4443 174.301 40.747 175.603 42.3538 175.603H49.7544C51.3613 175.603 52.6639 174.301 52.6639 172.694V168.749C52.6639 167.142 51.3613 165.84 49.7544 165.84Z" fill="black"/>
<path d="M44.0526 150.375H42.3538C40.747 150.375 39.4443 151.677 39.4443 153.284V169.823C39.4443 171.43 40.747 172.733 42.3538 172.733H44.0526C45.6595 172.733 46.9621 171.43 46.9621 169.823V153.284C46.9621 151.677 45.6595 150.375 44.0526 150.375Z" fill="black"/>
<path d="M73.3034 158.108H63.4424C61.8356 158.108 60.533 159.41 60.533 161.017V164.962C60.533 166.568 61.8356 167.871 63.4424 167.871H73.3034C74.9103 167.871 76.2129 166.568 76.2129 164.962V161.017C76.2129 159.41 74.9103 158.108 73.3034 158.108Z" fill="black"/>
<path d="M81.0166 150.375H71.2923C69.6854 150.375 68.3828 151.677 68.3828 153.284V157.151C68.3828 158.757 69.6854 160.06 71.2923 160.06H81.0166C82.6234 160.06 83.926 158.757 83.926 157.151V153.284C83.926 151.677 82.6234 150.375 81.0166 150.375Z" fill="black"/>
<path d="M81.1534 142.408H77.2872C75.6803 142.408 74.3777 143.711 74.3777 145.317V156.994C74.3777 158.601 75.6803 159.904 77.2872 159.904H81.1534C82.7603 159.904 84.0629 158.601 84.0629 156.994V145.317C84.0629 143.711 82.7603 142.408 81.1534 142.408Z" fill="black"/>
<path d="M80.8215 166.016H77.2872C75.6803 166.016 74.3777 167.318 74.3777 168.925V178.572C74.3777 180.178 75.6803 181.481 77.2872 181.481H80.8215C82.4283 181.481 83.731 180.178 83.731 178.572V168.925C83.731 167.318 82.4283 166.016 80.8215 166.016Z" fill="black"/>
<path d="M96.6381 173.768H82.5984C80.9916 173.768 79.689 175.071 79.689 176.678V178.591C79.689 180.198 80.9916 181.501 82.5984 181.501H96.6381C98.245 181.501 99.5476 180.198 99.5476 178.591V176.678C99.5476 175.071 98.245 173.768 96.6381 173.768Z" fill="black"/>
<path d="M133.875 173.611H108.119C106.513 173.611 105.21 174.914 105.21 176.521V178.649C105.21 180.256 106.513 181.559 108.119 181.559H133.875C135.482 181.559 136.785 180.256 136.785 178.649V176.521C136.785 174.914 135.482 173.611 133.875 173.611Z" fill="black"/>
<path d="M118.078 177.087H116.086C114.48 177.087 113.177 178.39 113.177 179.997V186.245C113.177 187.852 114.48 189.155 116.086 189.155H118.078C119.685 189.155 120.988 187.852 120.988 186.245V179.997C120.988 178.39 119.685 177.087 118.078 177.087Z" fill="black"/>
<path d="M127.92 170.702C127.92 169.095 126.617 167.792 125.01 167.792C123.403 167.792 122.101 169.095 122.101 170.702C122.101 172.309 123.403 173.611 125.01 173.611C126.617 173.611 127.92 172.309 127.92 170.702Z" fill="black"/>
<path d="M158.928 170.702C158.928 169.095 157.625 167.792 156.018 167.792C154.411 167.792 153.109 169.095 153.109 170.702C153.109 172.309 154.411 173.611 156.018 173.611C157.625 173.611 158.928 172.309 158.928 170.702Z" fill="black"/>
<path d="M172.889 134.617H170.898C169.291 134.617 167.988 135.919 167.988 137.526V141.607C167.988 143.214 169.291 144.517 170.898 144.517H172.889C174.496 144.517 175.799 143.214 175.799 141.607V137.526C175.799 135.919 174.496 134.617 172.889 134.617Z" fill="black"/>
<path d="M186.421 142.643H176.541C174.934 142.643 173.631 143.945 173.631 145.552V149.243C173.631 150.849 174.934 152.152 176.541 152.152H186.421C188.028 152.152 189.331 150.849 189.331 149.243V145.552C189.331 143.945 188.028 142.643 186.421 142.643Z" fill="black"/>
<path d="M141.881 167.89H137.702C136.096 167.89 134.793 169.193 134.793 170.8V172.948C134.793 174.555 136.096 175.857 137.702 175.857H141.881C143.488 175.857 144.791 174.555 144.791 172.948V170.8C144.791 169.193 143.488 167.89 141.881 167.89Z" fill="black"/>
<path d="M239.261 105.346H237.25C235.643 105.346 234.34 106.649 234.34 108.256V117.804C234.34 119.411 235.643 120.714 237.25 120.714H239.261C240.868 120.714 242.17 119.411 242.17 117.804V108.256C242.17 106.649 240.868 105.346 239.261 105.346Z" fill="black"/>
<path d="M247.091 97.3796H245.08C243.473 97.3796 242.17 98.6823 242.17 100.289V112.278C242.17 113.885 243.473 115.188 245.08 115.188H247.091C248.698 115.188 250.001 113.885 250.001 112.278V100.289C250.001 98.6823 248.698 97.3796 247.091 97.3796Z" fill="black"/>
<path d="M231.665 97.3796H231.645C228.863 97.3796 226.607 99.6352 226.607 102.418V102.437C226.607 105.219 228.863 107.475 231.645 107.475H231.665C234.447 107.475 236.703 105.219 236.703 102.437V102.418C236.703 99.6352 234.447 97.3796 231.665 97.3796Z" fill="black"/>
<path d="M223.522 89.8813H223.502C220.72 89.8813 218.465 92.1369 218.465 94.9192V94.9388C218.465 97.7211 220.72 99.9766 223.502 99.9766H223.522C226.304 99.9766 228.56 97.7211 228.56 94.9388V94.9192C228.56 92.1369 226.304 89.8813 223.522 89.8813Z" fill="black"/>
<path d="M215.965 81.9927H215.946C213.163 81.9927 210.908 84.2482 210.908 87.0306V87.0501C210.908 89.8324 213.163 92.088 215.946 92.088H215.965C218.748 92.088 221.003 89.8324 221.003 87.0501V87.0306C221.003 84.2482 218.748 81.9927 215.965 81.9927Z" fill="black"/>
<path d="M186.793 89.8813H176.795C175.188 89.8813 173.885 91.184 173.885 92.7908V97.0672C173.885 98.674 175.188 99.9766 176.795 99.9766H186.793C188.399 99.9766 189.702 98.674 189.702 97.0672V92.7908C189.702 91.184 188.399 89.8813 186.793 89.8813Z" fill="black"/>
<path d="M210.088 89.8813H198.43C196.823 89.8813 195.521 91.184 195.521 92.7908V97.0672C195.521 98.674 196.823 99.9766 198.43 99.9766H210.088C211.695 99.9766 212.997 98.674 212.997 97.0672V92.7908C212.997 91.184 211.695 89.8813 210.088 89.8813Z" fill="black"/>
<path d="M217.664 105.093H206.085C204.478 105.093 203.176 106.395 203.176 108.002V112.278C203.176 113.885 204.478 115.188 206.085 115.188H217.664C219.271 115.188 220.574 113.885 220.574 112.278V108.002C220.574 106.395 219.271 105.093 217.664 105.093Z" fill="black"/>
<path d="M194.486 97.3796H192.201C190.594 97.3796 189.292 98.6823 189.292 100.289V112.278C189.292 113.885 190.594 115.188 192.201 115.188H194.486C196.093 115.188 197.395 113.885 197.395 112.278V100.289C197.395 98.6823 196.093 97.3796 194.486 97.3796Z" fill="black"/>
<path d="M202.414 97.3796H196.556C194.949 97.3796 193.646 98.6823 193.646 100.289V104.155C193.646 105.762 194.949 107.065 196.556 107.065H202.414C204.021 107.065 205.323 105.762 205.323 104.155V100.289C205.323 98.6823 204.021 97.3796 202.414 97.3796Z" fill="black"/>
<path d="M194.467 83.906H184.664C183.057 83.906 181.755 85.2086 181.755 86.8155V88.69C181.755 90.2969 183.057 91.5995 184.664 91.5995H194.467C196.074 91.5995 197.376 90.2969 197.376 88.69V86.8155C197.376 85.2086 196.074 83.906 194.467 83.906Z" fill="black"/>
<path d="M210.088 127.958H184.527C182.921 127.958 181.618 129.261 181.618 130.868V133.797C181.618 135.404 182.921 136.706 184.527 136.706H210.088C211.695 136.706 212.997 135.404 212.997 133.797V130.868C212.997 129.261 211.695 127.958 210.088 127.958Z" fill="black"/>
<path d="M194.486 121.026H192.201C190.594 121.026 189.292 122.329 189.292 123.936V141.607C189.292 143.214 190.594 144.517 192.201 144.517H194.486C196.093 144.517 197.395 143.214 197.395 141.607V123.936C197.395 122.329 196.093 121.026 194.486 121.026Z" fill="black"/>
<path d="M202.394 113.04H198.43C196.823 113.04 195.521 114.342 195.521 115.949V128.349C195.521 129.956 196.823 131.258 198.43 131.258H202.394C204.001 131.258 205.304 129.956 205.304 128.349V115.949C205.304 114.342 204.001 113.04 202.394 113.04Z" fill="black"/>
<path d="M186.675 113.04H176.795C175.188 113.04 173.885 114.342 173.885 115.949V118.136C173.885 119.743 175.188 121.046 176.795 121.046H186.675C188.282 121.046 189.585 119.743 189.585 118.136V115.949C189.585 114.342 188.282 113.04 186.675 113.04Z" fill="black"/>
<path d="M193.939 120.695H184.527C182.921 120.695 181.618 121.997 181.618 123.604V130.712C181.618 132.319 182.921 133.621 184.527 133.621H193.939C195.546 133.621 196.849 132.319 196.849 130.712V123.604C196.849 121.997 195.546 120.695 193.939 120.695Z" fill="black"/>
<path d="M172.909 97.7114H170.898C169.291 97.7114 167.988 99.014 167.988 100.621V112.278C167.988 113.885 169.291 115.188 170.898 115.188H172.909C174.516 115.188 175.818 113.885 175.818 112.278V100.621C175.818 99.014 174.516 97.7114 172.909 97.7114Z" fill="black"/>
<path d="M172.597 150.375H170.898C169.291 150.375 167.988 151.677 167.988 153.284V157.151C167.988 158.757 169.291 160.06 170.898 160.06H172.597C174.203 160.06 175.506 158.757 175.506 157.151V153.284C175.506 151.677 174.203 150.375 172.597 150.375Z" fill="black"/>
<path d="M104.527 68.3237H92.8108C91.204 68.3237 89.9014 69.6263 89.9014 71.2332V78.9658C89.9014 80.5726 91.204 81.8752 92.8108 81.8752H104.527C106.134 81.8752 107.436 80.5726 107.436 78.9658V71.2332C107.436 69.6263 106.134 68.3237 104.527 68.3237Z" fill="black"/>
<path d="M149.535 60.4739H126.299C124.692 60.4739 123.389 61.7765 123.389 63.3834V65.3751C123.389 66.9819 124.692 68.2846 126.299 68.2846H149.535C151.142 68.2846 152.445 66.9819 152.445 65.3751V63.3834C152.445 61.7765 151.142 60.4739 149.535 60.4739Z" fill="black"/>
<path d="M104.527 68.3237H102.457C100.85 68.3237 99.5474 69.6263 99.5474 71.2332V79.2977C99.5474 80.9046 100.85 82.2072 102.457 82.2072H104.527C106.134 82.2072 107.436 80.9046 107.436 79.2977V71.2332C107.436 69.6263 106.134 68.3237 104.527 68.3237Z" fill="black"/>
<path d="M115.852 74.2209H92.8108C91.204 74.2209 89.9014 75.5236 89.9014 77.1304V79.2784C89.9014 80.8852 91.204 82.1878 92.8108 82.1878H115.852C117.459 82.1878 118.762 80.8852 118.762 79.2784V77.1304C118.762 75.5236 117.459 74.2209 115.852 74.2209Z" fill="black"/>
<path d="M133.739 74.2209H131.825C130.218 74.2209 128.916 75.5236 128.916 77.1304V79.2784C128.916 80.8852 130.218 82.1878 131.825 82.1878H133.739C135.345 82.1878 136.648 80.8852 136.648 79.2784V77.1304C136.648 75.5236 135.345 74.2209 133.739 74.2209Z" fill="black"/>
<path d="M118.254 74.2209H116.34C114.734 74.2209 113.431 75.5236 113.431 77.1304V79.2784C113.431 80.8852 114.734 82.1878 116.34 82.1878H118.254C119.861 82.1878 121.163 80.8852 121.163 79.2784V77.1304C121.163 75.5236 119.861 74.2209 118.254 74.2209Z" fill="black"/>
<path d="M143.868 134.097H143.875L138.327 129.678L125.941 120.144C125.636 119.911 125.948 119.441 126.284 119.628L133.442 123.636C136.686 125.454 140.787 124.401 142.752 121.246C144.823 117.915 143.729 113.529 140.326 111.566L129.821 105.495C129.49 105.301 129.732 104.797 130.092 104.936L134.918 106.868C134.918 106.868 135.042 106.913 135.086 106.93C135.599 107.108 136.149 107.206 136.722 107.206C139.34 107.206 141.49 105.135 141.675 102.673C141.915 99.4867 139.477 97.26 136.564 97.26C135.136 97.26 114.255 97.2576 114.255 97.2576C111.393 97.2576 108.986 99.5995 109.024 102.455C109.041 103.974 109.725 105.33 110.788 106.258C111.589 106.956 114.294 109.121 115.582 110.15C115.813 110.335 115.681 110.702 115.388 110.702H110.975C106.246 110.702 102.433 114.553 102.433 119.278C102.433 121.845 103.544 124.12 105.334 125.689L130.543 149.639C132.472 151.587 135.177 152.768 138.157 152.679C143.664 152.516 148.108 147.95 148.122 142.445C148.132 139.014 146.45 135.971 143.865 134.1L143.868 134.097Z" fill="#FF5E30"/>
<circle cx="200.88" cy="200.654" r="4.88" fill="black"/>
</g>
<defs>
<clipPath id="clip0_80_30368">
<rect width="250" height="249.941" fill="white"/>
</clipPath>
</defs>
</svg>
